<svg xmlns="http://www.w3.org/2000/svg" width="1920" height="1080"><path d="M-.1 1.8h760.4v479.6H-.1z" style="fill:#fff;stroke-width:1.51181;stroke-linecap:round;stroke-linejoin:round;paint-order:markers fill stroke" transform="matrix(2.5 0 0 2.3 .2 -4.1)"/><path d="M629 374.9a15 15 0 0 0-2.6-6.3l-2.6-3.8-.2-4.2-.1-4.1-2.3-2.3c-1.2-1.2-3-2.2-4.2-2.2-2.2 0-4-2.8-4-6.2 0-1.4-1-3.4-2.1-4.7l-2.1-2.3.6-3.8.6-3.8-6.3-.7-6.2-.7.1-5.5.1-5.5 2.7-2.4 2.6-2.5v-8.5l-1.7-2.4-3-3.8c-.7-.7-1.6-3.1-2-5.3-.6-4.3-3.8-8.5-6.8-9l-2-.4v-3c-.1-1.7-.7-4.2-1.3-5.7l-1.1-2.7-3.7-1c-2-.6-4-.8-4.5-.5-.5.3-1.8 0-3-.7l-2.2-1.1-.9 1.5-.9 1.6-1.4-.5c-.7-.3-1.8-2-2.4-3.6l-1-3-5.5.7-5.5.7.6-2.1.6-2.2-1.8-1.3-1.8-1.3.6-1.6.6-1.6 3.2.4 3.3.4-1.2-1.1a5.3 5.3 0 0 1-1.2-3.3c0-1.2-1-3.1-2.3-4.3l-2.3-2.2H547v-1.3c0-.8-.8-2.1-1.8-3l-1.7-1.6-4.7.2-4.7.2-2.8-3.3-2.8-3.3-6 2c-8.2 2.8-15.6 2-18-2l-.7-1 9.1-8.6 9.2-8.5-1.5-1.7-1.6-1.7 2.8-2.7c1.6-1.5 3.6-2.7 4.5-2.7 1.4 0 4.4-3.7 3.5-4.5-.2-.2-4-1.8-8.5-3.5l-8.3-3.3v-4.2c0-5.6.3-5.7 6.8-2.8 3.1 1.4 9.8 4 14.7 5.8 5 1.8 12.2 4.9 16 6.8 3.9 1.9 8.1 3.8 9.5 4.2a46 46 0 0 1 16 10.2c4.3 4.6 10 12 10 12.8a171.5 171.5 0 0 0 27 46.8c0 .5 1.4 3.7 3.1 7 1.7 3.4 4.2 8.9 5.4 12.2 1.3 3.3 3.5 8.7 5 11.9 1.5 3.2 3.8 9.5 5.1 14 1.3 4.5 3.7 11.5 5.3 15.6 6.3 16 7.8 20.7 8.4 25.3l.7 4.7h-2c-1 0-3.5 1.6-5.6 3.5-2 2-4.1 3.5-4.7 3.5-.6 0-1.9.7-2.9 1.7l-1.8 1.6ZM404.2 220.6c-10.3-2.8-10-2.4-10.6-12.6l-.6-8.5 1.8-2.2c1.8-2.3 8.7-7.3 10.1-7.3.5 0 1.6-1.1 2.5-2.5 1-1.4 2.3-2.5 3.1-2.5.8 0 1.5-.4 1.5-1 0-.4 1.6-1.8 3.5-3 2-1.2 5-3.5 6.8-5.2 5.2-4.8 6-5.5 9.4-7.2l3.2-1.6h22.8l4.9 2.7c2.6 1.5 6.4 3 8.3 3.3l3.6.5-.3 3.5c-.2 2-.8 3.9-1.2 4.4l-.9.9-4-1-4-1-2 2.8-2 2.8.5 1.5.6 1.6-1.6.6c-.8.3-2.5-.1-3.8-1-2.7-2-5-2-10.1-.2l-3.8 1.3-1.7 3.4c-1 1.8-3 4-4.6 4.9-1.7.8-4 2.7-5.4 4.3-1.3 1.5-2.9 2.7-3.5 2.7-.7 0-2.7 1.3-4.5 2.9l-3.3 2.8 1 4.4c.5 2.4.9 5.2.8 6.2v1.7l-4.1-.1c-2.3 0-7.8-1.1-12.4-2.3zm98-16.6c-2.7-3.6-2.7-3.7-.3-5l2-1 2.4 1.1 2.5 1.1-.5 1.8c-.3 1-1.3 2.6-2.2 3.4l-1.7 1.6z" style="fill:#cbb8b4" transform="matrix(2.5 0 0 2.5 0 -178)"/><path d="M274.6 351.3c-.3-.4-.6-2.1-.6-4 0-1.7-.5-3.5-1-3.8l-1.1-.7 1.2-1.4a5 5 0 0 1 3.4-1.4h2.3l.5-2.2c.4-1.2.1-2.8-.5-3.5l-1.1-1.4 1.4-1.3c2.1-2 9.5-3.7 12.4-3l2.5.6v-1c0-.7 1.1-1.2 2.5-1.2s5.3-1 8.8-2l6.1-2.2 1.7 2 1.6 2 1.3-.8c.8-.5 1.8-.6 2.2-.4.4.3.8-.2.8-1 0-1.8 2.5-2.2 3.5-.6.4.6.2 1.6-.3 2.3-1.6 2-2 5.2-1.2 10l.7 4.7-3.6 1-9.6 2c-3.3.7-7 1.8-8.2 2.6a10 10 0 0 1-4.6 1.4c-1.2 0-4.7.6-7.7 1.4-7.4 1.8-12.7 2.6-13.4 1.9zm-58.2-36c-.6-.5-1.5-2.8-1.9-5.3a355 355 0 0 1-4.6-23.5c-1.1-6.6-2.9-15.4-3.9-19.5s-2.1-9.8-2.5-12.5a19 19 0 0 0-1.6-6.1c-.5-.7-.8-4.2-.7-7.8l.3-6.6h2.2c1.2 0 2.5-.4 2.8-1 .4-.6 1-.8 1.6-.4.5.3 2.5 0 4.5-.6l3.5-1.2 1.4 1.2 1.4 1.2 2.3-.8c1.3-.4 3.5-.7 5-.6 1.4.1 3.8-.5 5.4-1.3 1.6-.8 3.6-1.5 4.5-1.5.9 0 2.4-.9 3.4-2s3.2-2.4 5-2.8l3-.8 2.7 1.5 2.6 1.5 1 5a929.6 929.6 0 0 0 5.6 24.6c.3.8 1.2 6.2 2 12a335 335 0 0 0 3.8 20.2l2.1 9.7-2.4 2-2.4 2-3.5-1.5c-2-.8-4.5-2.6-5.8-4L251 294l.6-8.2.6-8.2-2-7.2c-2.9-10.8-7.3-16.3-13.1-16.3-1 0-3-.9-4.4-2-3-2.4-5.5-2.5-8.4-.2l-2.2 1.7-.7 10-.6 10 1.1 6.3 1.2 6.3 2.7 4.3 4.5 7 1.9 2.5-.9 1.5c-.7 1.2-13.2 14.6-13.6 14.6l-1.3-.8zm62.9-126.7c-.4-.8-2.1-1.6-3.8-1.8l-3-.3-.3-2.3-.4-2.3-1.6.3-1.7.3-.5 3-.5 3-3.3.3-3.2.3v-3.5c0-2-.4-3.6-.8-3.6-.5 0-1.4-1.1-2-2.5L257 177l-1.3.5a221 221 0 0 1-20.6 1.8l-3.2.2-.6 3.2-.6 3.2-2.5-1.6-2.5-1.7.5-5.2c.3-2.9.2-6.8-.3-8.9l-.8-3.6 1.1-.5c.7-.2 5.2-.8 10.2-1.3 5-.5 11-1.4 13.5-2a79 79 0 0 1 13.2-1l8.7-.1.6-1c.3-.5 2-1 3.5-1a119 119 0 0 1 24-2.9l15.5-.7 3.5-1.6 3.5-1.6 11.5-.5c6.3-.3 12.2-.6 13-.8l1.4-.4.6 3.5.5 3.5 2.2-.3 2.3-.3 1.1 2.5c.7 1.4 1 3.1.6 4l-.6 1.4-6.9.7c-3.7.4-7.4 1-8.1 1.4l-1.3.8 1.3 6.2 1.2 6.2-2.2 1.5c-1.1.8-2.1 2.3-2.1 3.3v1.8l-2.6 1.2c-1.5.6-2.9 1-3.1.7-.3-.2-1.7 0-3.3.4l-2.9.8.6-1.5.6-1.5-1.4-.9a15 15 0 0 0-5.7-.9h-4.3l-3-6.5-3-6.6-1 .6c-.5.4-.9 2-.9 3.9 0 3.4-1.5 5.6-3.7 5.6h-1.4l-.5-3-.7-3H296v-1.5c0-1.5-1.2-2-2.2-1-.3.4-.2 2.3.3 4.3l.8 3.6-1 1.3c-1.9 2.2-2.8 1.5-3.5-2.6-.3-2-1-4.4-1.4-5l-.8-1.3-4 .7-4.2.7.6 7.9c.7 7.7.3 9.4-1.3 6.5zM331 175c0-1.1.5-2 1-2h1.1l-.3-2.8-.3-2.7-3.4-.3c-1.8-.2-3.8.1-4.4.7l-1 1 1.7 1.6c.9 1 1.7 2 1.7 2.6a21.7 21.7 0 0 0 .8 3.4c0 .3.8.5 1.6.5h1.5z" style="fill:#abc3c9" transform="matrix(2.5 0 0 2.5 0 -178)"/><path d="M188.5 319.3 187 311l-2-11c-1.5-9.3-2.8-16.3-5-26a487 487 0 0 1-6.6-35c-.3-3-1.5-8.1-2.5-11.4-1-3.2-2-7.5-2-9.5 0-3.3-1.8-12.6-5-25.5l-1.1-4.9 1.6-3.4c4-8.3 11.6-14.2 18.1-14 1.1 0 5-.3 8.8-.8l6.7-.7v7.2h7l.6-2.7.7-2.6-1-1.7-1.2-1.8 8.7-.5c4.8-.3 9.6-.7 10.6-.9l2-.3.7 3.4c.4 2 .5 5.8.2 8.8l-.6 5.3H223v4h-1.8c-1 0-2.2-1-2.7-2.3l-1-2.2-2.6-.3-2.5-.3-1.8 2-1.8 2 1.3 3.5c2.3 6.4-.8 6-4.1-.4l-2-4-1.5.6c-.8.4-1.5 1-1.5 1.4 0 .5-.7 1.6-1.6 2.5l-1.7 1.6 1.1 6.6c1.2 7.2 2 8.3 7 8.3h3.2l.6 2.7 1 4.5.5 1.7-2 1.8c-1.2 1-2.1 2.5-2.1 3.5v1.8h1.5c2 0 1.9 1.6-.5 4l-2 2 .2 2.8.3 2.6-2.5.6-2.5.5-.3 6.3-.4 6.3 1 1.2c.6.7 1.3 3.5 1.7 6.2.4 2.8 1.5 8.4 2.5 12.5a420 420 0 0 1 4 19.5 502 502 0 0 0 4.5 23.3l.7 3.2-2.7-1c-3.6-1.4-3.5-1.4-4.7 2l-1 3.1-3.8 2.4-3.8 2.4h-4c-2.2-.1-4.5.2-5 .5l-1.1.7z" style="fill:#b5ccb2" transform="matrix(2.5 0 0 2.5 0 -178)"/><path d="m328.6 311.3-.6-1.4 2.5-2.1c3-2.5 3-3.8 1-8l-1.7-3 1.3-.8 1.2-.8v-4.9l-.1-4.8 5.5-5 5.5-5.2-.7-3.6c-.4-2-1.1-4-1.6-4.3l-1-.5 1.5-1.4 1.4-1.4-1-4.2-.9-4.1 1.3-1.5c.7-.8 2.3-2 3.6-2.4l2.4-1-.5-1.2c-.2-.6-.9-1.1-1.5-1-1.8.4-4-3.2-4.7-7.8l-.7-4.5 2.4-1.2 4.8-2.7 2.5-1.4v-7.6l3-.3c6.3-.8 8.8-5.4 3.8-7.3l-2.4-.9.3-2.2.3-2.2 3.3-2c1.8-1 4.7-2.2 6.5-2.6 3.5-.9 8.5-2.6 13.2-4.5 5-2 10-3.5 12.3-3.5h2.2v1.8l.6 9.4.6 7.8h-3.7c-5.9 0-13 5.8-11 9 .3.4-.6 1-2 1.4l-2.5.6v1.5c0 .9.4 2.3.9 3.3 1.8 3.6 3 7 6 17.6l3 11-1 1.3c-.6.7-2.1 1.3-3.3 1.3-1.1 0-3 .7-4 1.5-1.1.8-3 1.5-4.3 1.5-1.3 0-2.6.7-3 1.5l-.5 1.4 2.1 2.7c2.8 3.6 2.6 5.8-.7 7.5-1.5.8-3 1.8-3.5 2.4-.9 1.2.2 14.6 1.4 16l.8 1-.9 1.4a2 2 0 0 1-2.2.8c-.8-.3-4.1.2-7.4 1l-11 2.7c-3 .6-5.6 1.5-6 1.9-.4.4-2 .7-3.5.7h-2.8l-.6 1.9c-.3 1-1.7 2-3 2.3l-2.4.5zm8.7-126.8-.6-1.8 2.3-1.9 2.3-1.8-1.3-6.2-1.2-6 1.3-.9c.7-.4 4.4-1 8.1-1.4l7-.7.5-1.5c.3-.8 0-2.6-.6-4L354 156l-2.2.3-2.2.3-.7-3.7c-.7-4.5-.5-4.8 3.5-4.8 1.8 0 4-.6 5.2-1.4l2-1.4 10 .4 11 .4c.5 0 3.3 2 6.2 4.6l5.2 4.6v18.6l-1.8-.5a85.9 85.9 0 0 0-19.4 4.4l-1.8.5v4.6l-5.7.6c-3.2.4-8 .8-10.8 1-2.7.2-7.1.6-9.7 1l-4.8.8z" style="fill:#a0b1c9" transform="matrix(2.5 0 0 2.5 0 -178)"/><path d="M206.5 366.9a27.1 27.1 0 0 1-8.6-8.4l-1.8-3.5c-1-1.8-3-9.7-4.1-16l-1.9-10-1.1-5.4 1-1c.4-.4 2.7-.8 5-.8h4.2l3.8-2.3 3.8-2.4 1-3.1 1.1-3.1 2.3.7c1.3.4 3.3 1.6 4.4 2.7l2.2 2-1 2.8c-.5 1.4-2 3.7-3.4 5-2.6 2.5-3 4-1.3 5.6l1 1 5.4-2.7c3-1.5 7.7-3.1 10.6-3.5l5.4-.7 2-1.8c1.1-1 5-3 8.5-4.5 3.6-1.5 7.3-3 8.2-3.6 1-.5 2-.5 2.2-.1.5.9 2.7 12.5 2.3 12.7 0 .2-1.2.6-2.4 1l-2.1.6-2-2.2-2-2.2-1.6.6-1.6.6v2.5c0 3-1 3.7-6 4a12 12 0 0 0-5.2 1.5l-4.2 3.4-2.8 2.3 1.4 1.2 1.5 1.2 3.9-2.6 3.8-2.6 1.8 1 1.7 1.2 4.6-2c5.1-2.2 9.5-2.6 9.5-.9v1.1l3.3-.6 3.3-.6 1.8 1.3 1.8 1.3 1.8 7.5c1 4 1.4 7.8 1 8.2-1 1.1-10.4 3.8-16.5 4.6-6.8 1-18.4 4.2-24 6.6-1.6.7-5.2 1.6-8 2-2.7.2-6.6.7-8.5 1l-3.5.5zm.7-135.1c-1.8-1.8-1.5-3.4 1-6.1l2.3-2.4 4.1-.7 4.1-.7.6 1.5c.4.9 1.5 1.6 2.6 1.6h1.9l.5-2 .5-2h2c1 0 3-1 4.5-2l2.6-2-.6-1.5c-.3-.8-1.1-1.5-1.8-1.5-2.4 0-4.2-2.8-4.3-6.9l-.2-4 3.5-1.5c2-.8 3.5-1.7 3.5-2l-1.6-7.3c-.8-3.7-1.3-8-1-9.8l.6-3 4.3-.3 7.6-.5 3.3-.2 1.4 5.2a60.7 60.7 0 0 1 1 20.8l-.7 4 1.3 2.4 1.3 2.4 4.9.1 4.9.1 1.2 4.2 1.3 4.2-1.5.5c-.8.3-2.7.6-4.3.6-1.6 0-3.6.7-4.5 1.6l-1.6 1.6-2.2-1.4-2.2-1.5-3 .8c-1.8.5-4 1.8-5 2.9-1 1-2.5 2-3.4 2-.9 0-2.9.7-4.5 1.5s-4 1.4-5.5 1.3c-1.4 0-3.6.2-4.9.6l-2.3.8-1.4-1.2-1.5-1.2-3.1 1c-4 1.5-4.2 1.5-5.7 0z" style="fill:#a7baa5" transform="matrix(2.5 0 0 2.5 0 -178)"/><path d="M269.7 352.3a64 64 0 0 1-1.7-7.3l-1.4-6.4-2.5-2.4-2.5-2.3 2.2-.6c2.4-.6 4-4 2.4-5.5-1.6-1.6-.2-4.6 3-5.9l2.9-1.2 2.4 1.3c1.4.7 2.5 2 2.5 2.7 0 1.8 1.8 1.6 10.3-.8 4-1.2 8.9-2.4 11-2.6 2-.3 3.7-1 3.7-1.4 0-1.6 1.9-1 4 1.3l2.1 2.3-3.8 1.7c-2 .9-5.3 1.7-7 1.7l-3.3.1v2.2l-2.5-.6c-2.9-.7-10.3 1-12.4 3l-1.4 1.3 1 1.4c.7.7 1 2.3.6 3.5l-.5 2.2h-2.3c-1.2 0-2.8.6-3.4 1.3l-1 1.3.8 1c.5.5 1 2.7 1.3 4.9l.3 4-2.2.3c-1.1.2-2.3 0-2.6-.5zm19.8-46.8-1.4-3.6 2.1-2.1 2.1-2.1 2.4 2.7 2.3 2.7v5.9h-6zm5.3-11.8-4.7-1.2-6.5-4.7-6.6-4.8v-3.7l2.8-1.3 2.7-1.3-1.6-.4c-1-.2-5.3.2-9.7 1l-8.1 1.4-.8-5.1-.9-5.1 3.6-.8c2-.4 5.9-1.5 8.8-2.4 5.8-1.7 10.1-1.9 17.8-.8l5.1.7 2.1-1.1c1.2-.6 4.8-1.4 8-1.7 3.3-.4 6.6-1 7.4-1.6l1.3-.9-2.2-1.5-2.2-1.6 2-3.1c3.7-6.2 2.2-8-4.4-5.2-1.9.8-3.7 1.2-4 .9a36 36 0 0 0-8.8 1l-8.3 1.6-1.5-1.5-1.6-1.6 2-1.5c1-.8 2.5-1.4 3.2-1.4 1.7 0 1.6-2-.3-5.8-1.6-3.3-2.8-4-4-2.2l-.6 1.1-1.4-1.2c-2-1.7-1.7-3.7.7-5l2.1-1-1-1.2c-.7-.6-1.2-2.4-1.2-3.9V224h-1.2c-.6 0-1.9.6-2.7 1.4a11 11 0 0 1-5.3 1.7l-3.7.3-2-1.8c-1.1-1-1.8-2.2-1.6-2.7.3-.4-.5-.9-1.7-1l-2.2-.4-1.2-4-1-4h-5l-4.9-.2-1.2-2.4a12 12 0 0 1-.3-9.9l1-1.8-1.1-7.4-1.6-10.4-.5-3.2 4.7-.4 4.8-.3 1 2.2c.6 1.3 1.4 2.3 1.9 2.3.4 0 .8 1.6.8 3.6v3.5l3.2-.3 3.3-.3.5-3 .5-3 1.7-.3 1.6-.3.4 2.3.3 2.3 3.3.3c3 .3 3.7 1.2 3.3 3.6-.1.4.1 1.7.5 2.8l.6 2 7.6-.6c4.2-.4 9-1.3 10.7-2 1.6-.8 6.1-1.7 10-2a174.7 174.7 0 0 0 23.1-3 82.2 82.2 0 0 1 20.9-3.1l10.8-1 5.7-.7v-4.5l3.8-1.1c8.5-2.6 14.7-4.2 16.3-4.2h1.7l2.1 4 2.1 4v6c0 3.2.4 6.2 1 6.5l1 .6-1.6 2.3-1.5 2.4-2-.5c-2-.6-7.8.8-13.4 3.1-4.5 2-9.6 3.7-13.2 4.6-1.8.4-4.7 1.6-6.5 2.7l-3.3 1.9-.3 2.2-.3 2.2 2.4 1c5 1.8 2.5 6.4-3.8 7.2l-3 .3v7.8l-1.5.5c-.8.3-2.6 1.3-3.9 2.3-3.2 2.5-3.8 2.4-4.6-.8a11 11 0 0 0-2.6-4.6c-1-1-1.9-2.6-1.9-3.5 0-1-.5-2.3-1.2-3l-1.1-1.1-1.8 1-1.8.9 2.4 5.7c6.1 15.3 6 32.3-.4 46l-2.9 6.1-6 6-6 6-3.9 1.1a41 41 0 0 1-18.5-.2z" style="fill:#93abbb" transform="matrix(2.5 0 0 2.5 0 -178)"/><path d="M677 452.5c-.7-.8-1.8-1.5-2.5-1.5-1.2 0-5.7-4.6-12.5-12.9l-7.8-9.2a20 20 0 0 1-4.2-6.5c0-2-5.8-9.4-7.3-9.4a44 44 0 0 1-7.7-14.7c0-.7-1.3-3.2-3-5.5a22.6 22.6 0 0 1-3.3-6.3 16 16 0 0 0-1.5-4.3l-1.3-2.2 3.3-3c1.8-1.7 3.8-3 4.4-3 .7 0 2.6-1.4 4.3-3 1.7-1.8 4.4-3.5 6-4l3-.8 2 5.4c1.2 3 2.1 6.4 2.1 7.4 0 5.4 11.2 29.1 14.7 31.3.7.4 1.3 1.4 1.3 2.1 0 .7.8 2 1.9 3l1.9 1.7-1 4-1 3.9 3.6 5.3c5.5 8.1 8.9 19.1 6.7 22.5l-.8 1.3zM429 399c0-.6-2-3-4.4-5.5L420 389l-6.9.6-7 .7-5-1.3c-2.9-.6-5.2-1.5-5.2-2 0-.4-1.8-1-4-1.4l-4-.6-.7-1.5c-.3-.9-3.6-3.3-7.3-5.5a28.8 28.8 0 0 1-16.1-22 41 41 0 0 0-6.1-14.1c-4-2.6-3.8-6.9.2-6.9h2.8l2.5 3.4 2.6 3.4 3.3-.3 3.3-.2 2.7-5.5c3.1-6.6 4.2-7.1 10.8-5.4 2.8.7 6.2 1.1 7.6.8l2.5-.5.6 2.1c.3 1.2 1.3 2.4 2.2 2.7.9.2 3 2.1 4.5 4.1l2.9 3.7-2 1.6c-1.1.9-3 3.7-4.2 6.3l-2.2 4.6-2.7 1.1c-1.5.6-4.4 2-6.5 3.2l-3.7 2.1v3.6l3.3.6c1.7.3 4.8.1 6.7-.4 2-.6 5-1 6.7-1h3.1l2.5-3 2.5-3 1 1.3c.5.7 1.1 2 1.3 3.1l.4 2 2.8.7c5.6 1.5 7.3 4.3 3.2 5.3a8.5 8.5 0 0 0-4.2 3.4c-1 1.5-2.4 3-3 3.5l-1.4.9 1 1.2 1.1 1.3 2.5-.5c1.4-.2 2.8-.8 3-1.3 1.3-2 3.4-.6 8.6 5.8 3 3.7 6.4 7.7 7.6 8.9 3 2.8 3 3-.8 4.3-4 1.3-3.9 1.3-3.9 0zm76-114.3c-2-1.8-4-4-4.3-5l-.6-1.6h-6l-.3-2.8-.3-2.7-2.5-.3c-1.4-.2-3.7-1.6-5.2-3-3.7-3.8-5.6-5.2-6.8-5.2h-1.1l.6-2.1c.4-1.2.7-3.7.7-5.6V253l4-2.5c2.2-1.4 5.6-4.2 7.6-6l3.5-3.6-2.8-2.4c-1.6-1.3-3.6-2.4-4.5-2.4-1 0-2.5-.9-3.5-2s-2.4-2-3-2c-.7 0-1.8-.7-2.5-1.5a4.7 4.7 0 0 0-3.1-1.5h-2l-.9 2.3c-.5 1.2-1.1 3.4-1.4 5-.7 2.9-3.9 5.2-6.2 4.3l-1.4-.5v-6.9l-2 .5-2 .5V239.5h-7.2c-7.7 0-16.8 2-16.8 3.7v1l-3.3-.5c-8.3-1.5-10.3-2-11.8-3.3l-1.6-1.4-2.9 2.5c-3.5 3-5 3-9.3.4l-3.5-2.1h-6a31 31 0 0 1-9.1-1.2l-3-1.2-2.5.6c-3 .8-5-.5-5-3 0-1-.5-2.2-1-2.5-.6-.3-1-1.5-1-2.5v-2l2.5-.6c1.4-.3 2.3-1 2-1.4-2.8-4.5 12-12.2 15.8-8.3 1.7 1.6 19.1 5.2 28.2 5.8l10 .7 12-1 11.9-1.2 1.4-1.4 1.5-1.5.4-7.8c.2-4.3.7-10.4 1-13.5l.5-5.7-1-3.1-1.1-3.2 2-2.8 2.1-2.8 3.5 1c2 .5 4.1.7 4.9.4l1.4-.5v-3c0-1.7.4-3.2.8-3.5 1.2-.7 14.5 2.9 21.7 6l10 4 7 2.7-.3 4.7-.4 4.6 8.4 3.3c4.5 1.8 8.4 3.4 8.6 3.6.9.8-2 4.5-3.5 4.5-1 0-3 1.2-4.5 2.7l-2.8 2.7 1.6 1.6 1.5 1.7-9.2 8.6-9.1 8.5.7 1.1c2.4 4 9.8 4.8 18 2l6-2 2.8 3.3 2.8 3.3 4.7-.2 4.7-.2 1.7 1.6c1 .9 1.8 2.2 1.8 3v1.3H552.7l2.1 2.3c1.2 1.3 2.2 3.2 2.2 4.3 0 1.1.5 2.5 1.2 3.2l1.1 1.1-3.2-.4-3.2-.4-.6 1.6-.6 1.6 1.8 1.3 1.8 1.3-.6 2.2-.6 2.1 5.5-.7 5.4-.6 1 2.6c1.4 3.6.5 4.6-2.6 3l-2.7-1.3-2.5 1c-1.4.4-4 1-5.6 1.2-1.7.2-3.2.9-3.4 1.5-.2.7-1.5 2.5-3 4.2l-2.5 3-1-1c-1.3-1.3-10-1.5-11.3-.2-1 1-20.5 8.1-22 8a17 17 0 0 1-4.5-3.3zm3.3-82.6.5-1.8-2.5-1.1-2.4-1.1-2 1c-2.4 1.3-2.4 1.4.3 5l2.2 3 1.7-1.6c1-.8 2-2.4 2.2-3.4z" style="fill:#b39290" transform="matrix(2.5 0 0 2.5 0 -178)"/><path d="m695 500.8-1.8-.7-.7-3-.6-3 2.6-3.9 2.6-4-.6-2.5-.7-2.5 1.6-4.7a91.5 91.5 0 0 0 2-28.8l-.7-6.8-2.5-3.7c-2.9-4.3-4.4-9-3.5-10.6.4-.6.6-2.7.4-4.8-.1-2.1 0-3.8.4-3.8 2.2 0 34.4 30 40.7 37.8 2 2.6 5.4 6.7 7.5 9 2.1 2.4 4.4 5.5 5 6.8.8 1.3 1.8 2.4 2.2 2.4.5 0 2.4 2.6 4.1 5.8a92 92 0 0 0 13 17l2 2.3-1.3.4c-.6.3-4.8.6-9 .8l-8 .2-1-3.1c-1.9-5-7.7-12.6-12.3-16.1l-4.2-3.2-4.9.2-4.8.2v8.8c0 4.9.3 9 .7 9.3 1.3.8 1 4.4-.4 4.5-4.3.5-26.2.3-27.7-.3zM321.5 340c-.3-.5-.6-3.4-.7-6.4l-.1-5.5 1.2-1.5c.7-.8 1-2 .6-2.6-1-1.6-3.5-1.2-3.5.6 0 .8-.4 1.3-.8 1-.4-.2-1.4 0-2.2.4l-1.4.9-1.4-2-1.4-2-1.7.6-1.7.5-2.2-2.5c-2.2-2.5-4.2-3.3-4.2-1.6 0 .5-1.7 1.1-3.7 1.4-2.1.2-7 1.4-11 2.6-8.5 2.4-10.3 2.6-10.3.8 0-.8-1.1-2-2.4-2.7l-2.5-1.3-3 1.3c-1.7.7-3.1 1.8-3.1 2.5v1.3l-3.7.4c-4.7.6-4.1 1.2-5.4-5.8-1.3-7.2-1.6-7.6-3.7-6.5l-8.2 3.6a40 40 0 0 0-8.5 4.5l-2 1.8-5.4.7c-2.9.4-7.7 2-10.6 3.5l-5.3 2.8-1.1-1.1c-1.6-1.6-1.3-3.2 1-5.3 1.2-1 2.9-3.4 3.8-5.3l1.6-3.3 4.5-.3c5.4-.3 40.1-8.3 41.3-9.4l.9-.9-1.1-2-1.1-2 2.2-1.6 2.2-1.5-2.1-9.3c-2.5-11.2-3.2-10.2 7.2-11.7 9-1.4 11.6-1 7.1 1l-2.6 1.2v3.7l6.6 4.8 6.5 4.7 4.7 1.2a41 41 0 0 0 18.5.2l3.8-1 6-6 6.1-6.1 2.9-6.2a58.3 58.3 0 0 0 .4-45.9L330 223l1.8-1 1.8-1 1.1 1.2c.7.7 1.2 2 1.2 3s1 2.6 2 3.6l2.1 2 1 7.3 1 7.4 1.6 1.7c.8 1 2 1.6 2.5 1.5.6-.1 1.3.4 1.5 1l.5 1.3-2.4.9c-1.3.5-3 1.6-3.6 2.4l-1.3 1.5 1 4.1.9 4.2-1.4 1.4-1.4 1.4.9.5c.5.3 1.2 2.2 1.6 4.3l.7 3.6-5.5 5.1-5.5 5.1v4.8l.1 4.9-1.2.8-1.3.7 1.6 3.1c2.2 4.2 2 5.5-.9 8l-2.5 2.1.6 1.4.5 1.4 2.4-.5c1.3-.2 2.7-1.3 3-2.3l.6-1.9h2.8c1.5 0 3.1-.3 3.5-.7.4-.4 3-1.3 6-2l11-2.6c3.3-.8 6.6-1.3 7.4-1a2 2 0 0 0 2.2-.8l.9-1.3-.8-1a42.8 42.8 0 0 1-1.4-16.1c.5-.6 2-1.6 3.5-2.4 3.3-1.7 3.5-3.9.7-7.5l-2-2.7.5-1.4c.3-.8 1.6-1.5 2.9-1.5 1.3 0 3.2-.7 4.3-1.5 1-.8 2.9-1.5 4-1.5 2.7 0 4.6-2.2 3.8-4.4-1.4-3.6 4-.6 6.1 3.4a66 66 0 0 0 8.5 10l7 7v2.8c0 1.5.6 4.8 1.4 7.3.8 2.5 1.7 8 2.1 12.2l.7 7.6-2.5 2.5-2.6 2.6h-5l.5 1.4.6 1.5-3.4.5c-1.8.4-4.9.6-6.8.5a78.7 78.7 0 0 0-22.3 4.4L360 326l-3 3.1c-1.7 1.7-3 3.7-3 4.5v1.5h-2.9c-1.5 0-8.1 1.4-14.6 3-13 3.3-14.1 3.5-15 2zM297 306v-2.9l-2.3-2.7-2.4-2.7-2.1 2.1-2.1 2.1 1.4 3.6 1.5 3.5h6zm-36.8-44.7a281.6 281.6 0 0 0-2.5-12.3 237 237 0 0 1-4.7-22.8v-2l1.8-.6c1-.3 4.4-.8 7.6-1.2l5.9-.7-.6 1c-.4.6.3 1.9 1.4 2.9l2 1.8 3.7-.3c2-.1 4.4-1 5.3-1.7.8-.8 2-1.4 2.7-1.4h1.2v2.8c0 1.5.5 3.3 1.1 4l1.1 1-2 1.1c-2.5 1.3-2.8 3.3-.8 5l1.4 1.2.7-1c1-1.9 2.3-1.2 4 2 1.8 3.9 2 5.9.2 5.9-.7 0-2.2.6-3.3 1.4l-1.9 1.5 1.6 1.6 1.5 1.5 8.3-1.5a36 36 0 0 1 8.8-1.1c.3.3 2.1-.1 4-1 6.6-2.7 8.1-.9 4.4 5.3l-2 3.1 2.2 1.6 2.2 1.5-1.3 1c-.8.4-4 1.1-7.3 1.5-3.3.3-7 1-8 1.7l-2.2 1.1-5.1-.7a37 37 0 0 0-17.6.8 66 66 0 0 1-8.5 2.2l-4 .6zm67.7-84.8-.4-1.5-.4-2c0-.4-.8-1.6-1.7-2.5l-1.7-1.6 1-1c.6-.6 2.6-.9 4.4-.7l3.4.3.3 2.8.3 2.7h-1c-.6 0-1.1.9-1.1 2v2h-1.5c-.8 0-1.6-.2-1.6-.5z" style="fill:#769ea6" transform="matrix(2.5 0 0 2.5 0 -178)"/><path d="M515 490.5a108.2 108.2 0 0 1-19-18.2c0-1.7-6.9-7.3-8.8-7.3h-1.8L468 447.1a709 709 0 0 1-19.8-20.7c-3.5-4.4-7-9.7-8.1-12.1-.6-1.2-2.2-3-3.6-3.9-1.4-.9-2.5-2-2.5-2.6 0-.5-.7-1.6-1.5-2.5-2.2-2.1-.8-3.5 3.4-3.2 5.9.3 6.6 0 8.4-3.4 1-1.7 4.4-6.1 7.7-9.7l5.8-6.5 3.4 3.3a16 16 0 0 0 4.2 3.2c.4 0 1.4.7 2.2 1.5l1.5 1.5 2.7-.7c2.5-.6 3.5-1.2 6.7-4 .8-.8 2.8-1.6 4.4-2l3-.5.7 1.5c.3.8-.1 3.5-1 5.9l-1.4 4.3 1.8 2c1 1.1 2.2 3.3 2.7 5l1 2.9 2.5.7 2.5.6 1.7-3.1 1.7-3.2-1-6.3-1-6.4 1.7-2.2c1-1.2 3-5.3 4.7-9.1 1.5-3.8 3.3-7.5 3.8-8.2l1-1.3 2.2 2.1 2.2 2 1.7 7.8c1 4.2 2.4 9.7 3.2 12.1a30 30 0 0 1 1.4 6.3v1.8h5.8l2.5 5.3 2.6 5.3 4-.4 4-.4 1.2 2.4c.7 1.2 3 4.4 5 6.9 4.3 5 4.5 5.6 2.5 7.8a12 12 0 0 0-2 3.7l-.6 2 3.5 3.5 3.5 3.4v4.6l2.5.9 2.5 1v5h4.1l-.7 2.2c-.9 3-2.4 4-4.9 3.2l-5.2-1.4-3.2-.8-1.2 1.4c-.6.8-2 1.4-2.8 1.4-2.3 0-6.4 4.5-9.5 10.5a45 45 0 0 1-7 9.5l-4.6 4.4-3.3-3.4c-7.5-7.8-13.7-11.5-13.7-8.2 0 .4 3.6 4.6 8 9.2l8 8.4v2.3c0 3.3-1.4 3.5-4 .8zm103.3-109.3-.4-1.8-5.4.6c-3 .3-6.4.2-7.7-.3-1.3-.5-3.9-1.3-5.8-1.6l-3.5-.6-.1-2-.3-3.7-.1-1.7-4.5-2.6-4.5-2.7-11.4-.4-11.4-.5-.5 2.2-.6 2-3.3-.4c-6.2-.8-8.8-3.1-8.8-7.8V358h2.3l4.7-.5 8.1-1 5.7-.6-.5-1.8-.5-1.8 5.8-1.1c3.1-.7 6.8-1.2 8-1.2h2.3l-.5-1.4c-.3-.7-1.5-1.9-2.7-2.5a8.3 8.3 0 0 1-3.2-3.4l-1-2.2-4.3-1-4.2-.9v-3.3l-3.9-.7c-2.1-.3-4.4-1.2-5-2l-1.2-1.4 1.6-1.6c1-.9 2.3-1.6 3-1.6 2 0 1.9-1.7-.6-5.6-1.1-1.9-1.8-3.8-1.4-4.4l.6-1-2.3-.1H543l-15.5.2-1.3-1.5c-.8-.9-2.1-1.6-3-1.6-1 0-3.2-1.6-5-3.4l-3.4-3.5 3-.7a8.7 8.7 0 0 0 4-2.2l1.3-1.6 3.6 1.3 3.6 1.3 3.4-.7 3.5-.6-.6-1.9-.6-1.9 2-1c1-.6 3.8-1.1 6-1.1h4l1.6-1.7c1-.9 3.1-2.4 4.8-3.2 1.7-.9 3.2-2 3.3-2.6.5-1.5-8.2-7.5-10.9-7.5-3.7 0-3.9-1-.8-4.5 1.6-1.8 3-3.8 3.3-4.5.2-.7 1.7-1.4 3.4-1.6a28 28 0 0 0 5.5-1.2l2.4-1 2.5 1c3.8 1.6 7 1.5 8 0l.7-1.4 2.2 1.1c1.2.7 2.5 1 3 .7.4-.3 2.5 0 4.5.5l3.7 1 1.1 2.7c.6 1.5 1.2 4 1.2 5.7l.1 3 2 .3c3 .6 6.2 4.8 6.9 9.1.3 2.2 1.2 4.6 1.9 5.3.7.7 2 2.4 3 3.8l1.7 2.4v8.5l-2.6 2.5-2.7 2.4-.1 5.5-.1 5.5 6.2.7 6.3.7-.6 3.8-.6 3.8 2 2.3a8.2 8.2 0 0 1 2.2 4.7c0 3.4 1.8 6.2 4 6.2 1.1 0 3 1 4.2 2.2l2.3 2.3.1 4.1.2 4.2 2.6 3.8a15 15 0 0 1 2.6 6v2.2l-3 3.1c-1.8 1.7-4 3.1-5.2 3.1h-2ZM421.1 222.7c-.6-.8-.8-1.6-.6-2 .3-.2 0-2.6-.5-5.2l-1-4.8 3.2-2.8c1.8-1.6 3.8-2.8 4.5-2.9.6 0 2.2-1.2 3.5-2.8 1.3-1.5 3.7-3.4 5.4-4.2a13 13 0 0 0 4.6-5l1.7-3.4 4.6-1.5 4.6-1.4 2.7 1 2.7.9-.2 4.3c-.1 2.3-1 5.7-2 7.4-1.1 1.8-2.3 4.7-2.6 6.6-.4 1.8-2 5-3.7 7-3.2 4.2-3.8 6.5-1.8 7.8l1.3.8-4.5.7c-2.5.3-8.2.7-12.6.7l-8.2.1z" style="fill:#a5837a" transform="matrix(2.5 0 0 2.5 0 -178)"/><path d="M528 499.8a23 23 0 0 0-6.6-5.4l-3-1.3.3-2.8.4-2.8-8-8.5a82 82 0 0 1-8.1-9.2c0-3.3 6.2.4 13.7 8.2l3.3 3.4 4.5-4.4a45 45 0 0 0 7.1-9.5c3.1-6 7.2-10.5 9.5-10.5.9 0 2.2-.6 2.8-1.4l1.2-1.4 3.3.8c1.9.4 3.9 1 4.5 1.4 1.8 1.2 4.8-.3 5.4-2.6l.6-2 1.8.5a76 76 0 0 0 15.5 3.7h2.7l-.5 3.2-.9 5c-.1.9.6 2.7 1.8 3.9l2 2.2-1.9 1.3-3 2.2c-.5.5-2.2 1.7-3.7 2.6-1.5 1-2.7 2.5-2.7 3.3 0 .8-1.5 2-3.4 2.8-1.9.8-3.6 1.8-3.8 2.3-.1.4-2.4 2.3-5 4-2.7 1.8-4.8 3.7-4.8 4.2s-1 1.2-2.3 1.6c-3 1-10.8 7.4-10.1 8.5l.5.9h-4.8l-4.8-.2zM492 407l-2.4-.6-.9-3c-.5-1.6-1.8-3.8-2.7-4.9l-1.8-2 1.5-4.3c.8-2.4 1.2-5 .9-6l-.6-1.4-3 .6c-2.8.5-3.8 1-7.3 4.2-.7.6-2.4 1.4-3.9 1.7l-2.7.7-1.5-1.5c-.8-.8-1.9-1.5-2.3-1.5-.5 0-2.4-1.6-4.3-3.5l-3.3-3.4 8-8.8c8.3-9.2 13-15.8 20.2-28l4.1-7.2 5.8 3c3.1 1.8 6.7 4.1 8 5.3l2.4 2.1-.5 4c-.3 2.2-.8 5.3-1.2 6.9l-.8 2.8 4.4 3.8c2.4 2 4 4.1 3.7 4.6-.5.4-1.6 0-2.6-1l-2-1.6-.9 1.2c-.5.7-2.3 4.4-3.8 8.2a55 55 0 0 1-4.7 9l-1.7 2.3 1 6.5 1 6.6-1.8 2.9-1.8 3zm57-27-2.6-1.9-8.8-.3-8.8-.4-.8-1.4-.8-1.3-2 .6c-3.3.8-8.2-10.7-8.2-18.9 0-2-1-5.6-2.1-8.2a33.3 33.3 0 0 1-2.6-9.2l-1.3-14-1-9.5.8-3a8 8 0 0 1 2.5-3.9l1.6-1 3.4 3.2c1.8 1.7 4 3.2 4.9 3.2.8 0 2.1.7 2.9 1.6l1.3 1.5 15.5-.1c8.6-.1 16.6-.2 18-.1l2.2.1-.6 1c-.4.6.3 2.5 1.4 4.4 2.5 4 2.7 5.6.7 5.6-.8 0-2.2.7-3 1.6l-1.7 1.6 1.2 1.4c.6.8 2.9 1.7 5 2l3.9.7v3.3l4.3 1 4.2.9 1 2.2c.5 1.2 2 2.7 3.2 3.4 1.2.6 2.4 1.8 2.7 2.5l.5 1.4h-2.3c-1.2 0-4.9.5-8 1.2l-5.8 1.1.5 1.8.5 1.8-5.7.6a439.7 439.7 0 0 0-12.9 1.4l-2.2.1v2c0 4.7 2.4 6.8 8.8 7.7l3.3.5.6-2.1.5-2h5.2c8.2 0 18.2 1 19.4 1.8l1.1.7-.5 2.1-.6 2.1-6.1.9-6.2.8-.1 2.5-.2 4.6-.2 2-11.8.2h-11.7zm-185.7-41.7-2.7-3.5-3.3.4-3.3.4v-1.8c0-1 1.3-3.1 3-4.8l3-3 8.7-2.7c11-3.2 17-4.4 25.3-4.7l6.5-.3 2.3 1.4 2.2 1.3v2.6c0 1.4.6 3.7 1.4 5.3l1.5 2.7-.9 1.4c-.4.7-.6 2-.3 2.7.3.7.2 2.5-.2 4l-.6 2.7-3.4-3.7c-1.9-2-3.8-3.7-4.3-3.7s-1.2-1-1.5-2.1l-.6-2.2-2.5.5a23 23 0 0 1-7.6-.8c-6.6-1.7-7.7-1.2-10.8 5.4l-2.7 5.5-3.3.2-3.3.3zm160.9-35.5c-9.2-4.4-12.2-9.5-7.3-12.4l3-1.8-1-1.7-.8-1.7 6.2-2.2c3.4-1.2 6.6-2.6 7.2-3.1.5-.5 3-.9 5.7-.9h4.7l1.1 2 1 2h2.6c2.7 0 11.5 6 11 7.5-.1.6-1.6 1.7-3.3 2.6-1.7.8-3.8 2.3-4.8 3.2L548 298h-4c-2.2 0-5 .5-6 1l-2 1.1.6 1.8.6 1.9-2.3.6c-3.7 1-6 .6-10.6-1.6zM453 268.1c-1.4-.4-3.4-1.3-4.5-1.8l-5-2.5c-1.6-.9-6-1.8-9.8-2.1-3.7-.4-8.4-1.4-10.3-2.3l-3.6-1.7H402l-2.5 1.6-2.4 1.6-4.4-3.3c-2.4-1.8-5-4.5-5.7-6l-1.5-2.7-2 .3-1.9.3-1.4-4c-2.3-6.8.6-9.6 7.2-7 1.6.8 5.7 1.3 9 1.3h6.1l3.5 2c4.4 2.8 5.8 2.7 9.3-.3l3-2.5 1.5 1.4c1.5 1.3 3.5 1.8 11.9 3.3l3.2.5v-1c0-1.6 9-3.6 16.8-3.7h7.2V234.2l2-.5 2-.5v6.9l1.4.5c2.3.9 5.5-1.4 6.2-4.4.3-1.5 1-3.7 1.4-5l1-2.2h1.9c1 0 2.4.7 3.1 1.5.7.8 1.8 1.5 2.5 1.5.6 0 2 .9 3 2s2.6 2 3.5 2c1 0 3 1 4.5 2.4l2.8 2.4-3.5 3.5c-2 2-5.4 4.7-7.6 6l-4 2.6v2.8a30 30 0 0 1-.6 6l-.7 3.2-4.7.6c-2.6.3-6 1-7.7 1.7-4 1.5-9.5 1.9-12.5.9z" style="fill:#926c65" transform="matrix(2.5 0 0 2.5 0 -178)"/><path d="m279.5 193-.7-2.3 1.2-.7 1.3-.8-.7-7.5-.7-7.5 4.2-.7 4.1-.7.8 1.2c.4.7 1 3 1.4 5.1.7 4 1.6 4.8 3.4 2.6l1-1.3-.7-3.6c-.5-2-.6-4-.3-4.2 1-1.1 2.2-.6 2.2.9v1.5h4.8l.5 3 .7 3h1.3c2.2 0 3.7-2.2 3.7-5.6 0-1.8.4-3.6 1-3.9l1-.6 3 6.6 2.9 6.5h4.3c2.4 0 5 .4 5.7 1l1.4.8-.6 1.5-.6 1.5-4.3.6-11.8 1.2c-4.1.3-8.9 1.2-10.5 2-1.7.7-6.5 1.6-10.7 2l-7.6.7z" style="fill:#537a85" transform="matrix(2.5 0 0 2.5 0 -178)"/><path d="M540.6 503.1c-.7-1 7-7.5 10.1-8.5 1.3-.4 2.3-1.1 2.3-1.6s2.1-2.4 4.8-4.1c2.6-1.8 4.9-3.7 5-4.1.2-.5 2-1.5 3.8-2.3 1.9-.8 3.4-2 3.4-2.8 0-.8 1.2-2.3 2.7-3.3a54.3 54.3 0 0 0 6.8-5l2-1.4-1.4-.9-1.4-.9.6-1.6.6-1.6h5.2l2.6 2.4 2.6 2.5 4.6-2.5c10.2-5.6 12.2-7 12.7-9 .3-1.2 3.7-4.5 7.6-7.5l9-7 2.2-1.6-2-1.1-2.1-1.1-3.2.9a24 24 0 0 0-6.8 4l-3.8 3h-2.8c-1.5 0-4.2.7-6 1.6l-3 1.6h-18.2l-2.5 2.4-2.5 2.3-5-1.4-9.3-2.7-4.2-1.2V445.9l-2.5-.9-2.5-1v-4.5l-3.5-3.4-3.5-3.4.6-2.1a12 12 0 0 1 2-3.7c2-2.2 1.8-2.8-2.4-7.8a95 95 0 0 1-5.5-7.4l-1.8-2.8 1.2-1.5c2.2-2.7 5.6-1.8 22.4 6.1 2.8 1.3 8.1 3.1 12 4l7 1.7 13 .1 13 .1 4.5-1.8c2.5-1 6.4-2.2 8.8-2.8l4.2-1 1.6-3c.8-1.5 1.2-3.3.8-4l-.6-1-2.5.7-2.5.6-3-1.3-3-1.3.6-3.5c.3-2 1.3-4 2.2-4.7.9-.6 1.7-2.6 1.7-4.3l.2-3.1-4-1.5c-5-1.7-6.4-1.7-8.4 0a13 13 0 0 1-5.1 2l-3.6.6-2-1.5c-2.7-2-3.8-1.9-6.4.8l-2.3 2.4-3.6-.7c-2-.3-4.7-.3-6.1 0l-2.5.7 1.8.8 1.8.8-.6 3.7-.6 3.7 2 .6c2.5.6 2.8 3.5.5 4.4-.8.3-2.7 0-4.2-.7l-2.6-1.2-1.6 2-2.5 3.5-1 1.6-4-1.9c-2.2-1-4.8-2-5.7-2-1 0-1.8-.4-1.8-.8 0-.5-3.2-2.6-7-4.7l-7.2-4-1.3-2.6c-.8-1.5-2.1-3-3-3.2-1.7-.7-2-4.3-.4-5.2l1-.7-3.3-2.4c-1.8-1.4-3.3-3.3-3.3-4.2v-1.7l8 .4 8 .3 2.6 1.9 2.5 1.8 11.7-.1 11.7-.1.2-2.1.2-4.6.1-2.5 6.2-.8 6.1-.8.5-2c.6-2.4 1.5-2.4 4.6 0l2.3 1.8.2 3.4.2 3.4 3.4.6c2 .3 4.5 1 5.8 1.6 1.3.5 4.8.6 7.8.3l5.4-.6v1.3c0 2.1 2.9 2.7 5.7 1.2l2.5-1.3 1.1 2c.6 1 1.3 2.8 1.4 3.9.2 1.1 1.7 4 3.3 6.3 1.7 2.3 3 4.8 3 5.5 0 2.2 6.5 14.7 7.7 14.7 1.5 0 7.3 7.4 7.3 9.4 0 .8 2 3.8 4.2 6.5 2.4 2.7 5.9 6.8 7.8 9.2 6.7 8.2 11.3 12.9 12.5 12.9.6 0 2 .8 2.8 1.8l1.6 1.8-5 8.4c-5.4 9.2-7.8 12-18.2 21.2l-6.8 6-3-2.8c-1.6-1.5-2.8-3.5-2.7-4.4.4-2.6-1.2-4-4.7-4h-3.4l-.6-2c-.3-1.1-1-2-1.5-2s-1.2-1-1.6-2.3c-.3-1.2-1.3-3-2.1-4l-1.6-1.6-1.6.8a51 51 0 0 0-6.1 5.1 35 35 0 0 1-7.7 5.5L609 480l-1.2 2.5c-.6 1.5-1.7 2.6-2.5 2.6-3 0-13.5 9-15.8 13.4l-1.3 2.5 1.5.5c.8.3 10.9.3 22.4 0l21-.7-.7 1.6-.6 1.7H541Zm153.4-.6v-1.4l13.8.3c7.5.2 14.3 0 15-.2 1.3-.5 1.7-3.8.4-4.6a31 31 0 0 1-.7-9.3v-8.8l4.8-.2 4.9-.2 4.2 3.2a43 43 0 0 1 12.2 16l1 3.2 2.6.3c1.4.2 5.6 0 9.2-.6l6.6-.9V504h-74zM460.8 366.4l-1.7-1.7-8.8-.2-8.8-.2-1.3-2.6c-.7-1.5-1.9-2.7-2.6-2.7-.7 0-2-.8-3-1.9l-1.7-1.8 1-2.7c.6-1.5 1.1-6 1.1-10v-7.3l2.4-2.2 2.5-2.3 7.3.5c4 .3 9.8 1 12.8 1.7l13.4 2c4.3.5 8.3 1.3 8.7 1.7l.8.8-1.5 3-5 9.5a72.4 72.4 0 0 1-8.7 12.3l-5.2 5.8zm-231.3-70.1a37.7 37.7 0 0 1-7.6-16.6l-1.1-6.2.6-10 .7-10 2.2-1.7c2.9-2.3 5.3-2.2 8.4.2 1.4 1.1 3.4 2 4.4 2 5.8 0 10.2 5.5 13.1 16.2l2 7.3-.5 6.8c-.5 8-.5 7.9-4.2 6.8l-3-.8-3.5 1-3.5.9-3 3.4-3 3.4zm176-23.7-1.8-1.3.6-1.7.6-1.6h3.6c2 0 4.5.5 5.6 1l2 1-1.1 2-1 2h-3.3c-1.8 0-4.2-.6-5.2-1.4z" style="fill:#6c554f" transform="matrix(2.5 0 0 2.5 0 -178)"/><path d="m589.3 501.4-1.1-.5 1.3-2.5c2.3-4.4 12.9-13.4 15.8-13.4.8 0 1.9-1.1 2.5-2.6l1.2-2.5 3.3-1.4a35 35 0 0 0 7.7-5.5 51 51 0 0 1 6.1-5l1.6-1 1.6 1.8c.8 1 1.8 2.7 2.1 4 .4 1.2 1.1 2.2 1.6 2.2s1.2.9 1.5 2l.6 2h3.3c3.6 0 5.7 1.6 4.9 3.7l-.6 1.4 3 3 2.8 3-3 2.2c-1.6 1.2-4.6 3.6-6.5 5.3l-3.5 3.1-22.5.6c-12.4.3-23 .3-23.7 0zm-1.6-34c-2.7-2.5-7-3.2-8.2-1.4-1 1.5-2.4.3-2-1.8l1-5 .5-3.2H573.7l2.2-2.4 2.3-2.4h18.4l3.2-1.6c1.7-.9 4.4-1.6 6-1.6h2.7l3.8-3a24 24 0 0 1 6.8-4l3.2-1 2 1.2 2 1-2 1.7-9.1 7c-3.9 3-7.3 6.3-7.6 7.5-.5 2-2.5 3.4-12.7 9l-4.6 2.5zm-7.2-48.4c-8-.9-17.4-3.4-22.5-6-12.8-6.8-19-8.3-21.2-5.1-.7 1-2.8 2-4.6 2.3l-3.2.5-2.6-5.4-2.6-5.3H518v-1.8c0-1-.6-3.8-1.4-6.3-2-6.4-5-19.1-4.8-21.2V369l-4-3.2-4-3.3.7-3c.4-1.6.8-5.1.9-7.7 0-2.7.5-4.8 1-4.8.4 0 2-.9 3.5-2l2.8-1.9 2.1 5c1.2 2.7 2.2 6.5 2.2 8.4 0 8.4 4.9 19.4 8.3 18.8l2.4-.5 1.5 3.1a18 18 0 0 0 4.7 5.5l3.2 2.4-1 .7c-1.6 1-1.3 4.5.4 5.2.9.3 2.2 1.7 3 3.2l1.3 2.7 7.1 3.9c4 2 7.1 4.2 7.1 4.7 0 .4.8.8 1.8.8s3.5 1 5.7 2l4 2 1-1.7 2.5-3.5 1.6-2 2.6 1.3c1.5.6 3.4.9 4.2.6 2.3-.9 2-3.8-.5-4.4l-2-.6.6-3.7.6-3.7-1.8-.8-1.8-.8 2.5-.6a17 17 0 0 1 6.1 0l3.6.6 2.3-2.4c2.6-2.7 3.7-2.8 6.5-.8l1.9 1.5 3.6-.6a13 13 0 0 0 5-2c2-1.7 3.5-1.7 8.5 0l4 1.5-.2 3.1c0 1.7-.8 3.7-1.7 4.3-1 .7-1.9 2.8-2.2 4.7l-.6 3.5 3 1.3 3 1.3 2.5-.6 2.5-.7.6 1c.4.7 0 2.5-.8 4l-1.6 3-4.2 1c-2.4.6-6.3 1.8-8.8 2.7l-4.5 1.7-8.5.3c-4.7.1-11.6-.1-15.5-.5zm-150.2-17.3c-.6-1 .6-2.7 2-2.7.7 0 1.9-.4 2.7-1l1.4-.9-2.4-2.3c-1.4-1.4-5-5.4-8-9.1-5.1-6.4-7.2-7.8-8.4-5.8-.3.5-1.7 1-3 1.3l-2.6.5-1-1.3-1.1-1.2 1.3-.9c.8-.4 2.1-2 3-3.5 1-1.5 3-3 4.3-3.4 4-1 2.4-3.8-3.2-5.3l-2.8-.7-.4-2c-.2-1-.8-2.4-1.3-3.1l-1-1.2-2.5 3-2.5 2.9h-3.1c-1.8 0-4.8.5-6.7 1-2 .6-5 .7-6.7.4l-3.3-.6v-3.6l3.8-2.1c2-1.2 5-2.6 6.4-3.2l2.7-1 2.2-4.7c1.2-2.6 3-5.4 4.1-6.3l2-1.5.3-5.3c.2-3 .6-5.6 1-5.8.2-.3-.2-1.8-1-3.4-.8-1.5-1.5-3.8-1.5-5v-2.1l2.8.6c5.8 1.2 17 2.6 25.7 3l9.3.5c1.3.4-.6 3.4-3.8 6l-4 3.2v7.4c0 4-.5 8.6-1 10l-1 2.8 1.6 1.8c1 1 2.3 1.9 3 1.9.7 0 1.9 1.2 2.6 2.7l1.3 2.6 8.7.2 8.8.2 1.8 1.7 2 1.7 5.7-6.8A76 76 0 0 0 477 349c6.7-13.5 6.2-13 9.7-10.5l2.2 1.6-4.3 7.3c-7 11.8-11.3 17.5-25.1 33.1-7.1 8.1-13.9 16.1-15 17.9l-2.1 3.5a33 33 0 0 1-12-.1zm-211-178.3-.6-1.6-3.3.6c-1.8.4-4.4.4-5.8 0l-2.6-.6V220c0-.9 1-2.4 2-3.4l2.1-1.8-.5-1.7-1-4.4-.6-2.8h-3.3c-4.8 0-5.7-1-6.9-8.3l-1-6.6 1.6-1.6c.9-.9 1.6-2 1.6-2.5 0-.4.7-1 1.5-1.4l1.5-.5 2 3.9c3.3 6.5 6.4 6.8 4.1.4l-1.3-3.5 1.8-2 1.8-2 2.5.3 2.6.3 1 2.3c.5 1.2 1.8 2.2 2.7 2.2h1.8v-4h1.9c1 0 2.8.8 4 1.8l2.2 1.7 1.4 6c1.9 8 2 7.4-2 9L227 203l.2 4.1c.1 4.1 1.9 7 4.3 7 .7 0 1.5.6 1.8 1.4l.6 1.4-2.6 2a9.4 9.4 0 0 1-4.5 2.1h-2l-.5 2-.5 2h-2c-1 0-2.1-.7-2.5-1.6zm227-1.5c-2-2-1.6-3.8 1.7-8a21 21 0 0 0 3.7-7c.3-1.9 1.4-4.7 2.4-6.4 1-1.6 2-4.6 2.4-6.7l.7-3.6 2-.5 2-.5.5 1.4c.3.8.3 4 0 7.2-.3 3.1-.8 9.2-1 13.5l-.4 7.8-1.4 1.4c-.8.8-3.6 1.7-6.4 2l-5 .7z" style="fill:#63463d" transform="matrix(2.5 0 0 2.5 0 -178)"/><path d="M679 502.8c0-.7 1.2-3.9 2.7-7l2.7-5.8h1.6c3.1 0 8 7.7 8 12.6v1.4h-15zm16.4-35.7-3.1-2.8-4.7-.7c-2.5-.4-5.4-.5-6.4-.1l-1.9.5-1.7-1.8-1.6-1.9 2-4.4c3.2-7 1.3-15.5-5.6-25.6l-3.6-5.3.9-3.7.9-3.8 11-.3 11.2-.3.4 4.7c.2 2.5 0 4.8-.4 5-1.3.8.3 5.6 3.2 10.1l2.8 4.3.5 7.2a98 98 0 0 1-.4 21.3c-.2.2-1.8-1-3.5-2.4zM503 345.6c-.8-.8-3.9-2.6-6.8-4.1l-5.3-2.8.7-3c.3-1.8 2.6-7 5-11.7 2.3-4.7 4.7-10.4 5.4-12.8l1.3-4.2h2.8c3.7 0 4.4 1.3 4.5 9.5.1 3.9.6 11.4 1 16.8l1 9.9-2.7 1.9c-3.2 2.3-5 2.4-7 .5zm-21.3-9.2c-.2-.3-4-1-8.3-1.5-4.4-.5-10.4-1.4-13.4-2-3-.5-8.5-1.2-12.2-1.6l-6.7-.5 1.2-1.9c1.6-2.6.7-3-7.5-3.5-23.4-1.1-32-3.3-34-8.7l-.7-1.7h5l2.6-2.6 2.5-2.5-.7-7.6c-.4-4.2-1.3-9.7-2-12.2a33 33 0 0 1-1.5-7.4V280l-6.4-6.3a79.2 79.2 0 0 1-9-10.5c-1.4-2.2-3.4-4.3-4.5-4.7l-2-.6-1.1-3.4c-1.9-5.6 1.4-7.9 4-2.9.9 1.5 3.4 4.2 5.8 6l4.4 3.3 2.4-1.6 2.5-1.6H419.8l3.6 1.7c2 1 6.6 2 10.3 2.3 6.5.5 8 1 15.5 5l3.2 1.7h5c2.8 0 6.5-.5 8.1-1.1 1.7-.6 5.6-1.6 8.8-2.2l5.9-1 1.5 1.2c.8.7 2.7 2.4 4.1 3.9 1.5 1.4 3.8 2.8 5.2 3l2.5.3.3 2.8.3 2.7h6l.6 1.7c.4 1 2.2 3 4 4.6l3.4 3-1.3.8c-.7.5-2.7.9-4.5.9-3.6 0-4.7 1.2-4.9 5.5 0 1.7-.8 7.6-1.7 13.3-1.4 9-2.4 12-4.7 14.2-.3.3-2 3.5-3.7 7.1-3 6.6-4.5 8.4-5.6 7.3zM415 272l1-2-2-1c-1-.5-3.5-1-5.5-1H405l-.6 1.6-.6 1.7 1.8 1.3c1 .8 3.4 1.4 5.2 1.4h3.2z" style="fill:#4d2e2c" transform="matrix(2.5 0 0 2.5 0 -178)"/><path d="M632 503c0-.6 1-1.5 2.4-2a7.4 7.4 0 0 0 3.1-2c.4-.6 4-3.5 8-6.5 3.9-2.9 10.7-8.7 15-12.8l8-7.4 3.6-6.2 3.6-6 1.8 2 1.8 2 1.9-.6c1-.4 3.9-.3 6.5 0l4.6.8 3.5 3.2 3.5 3.2-1.7 5.3-1.7 5.3.6 2.5.6 2.4-2.6 4-2.7 4-2.2-2.1c-1.2-1.2-2.9-2.1-3.7-2.1h-1.5l-2.7 5.8a34.4 34.4 0 0 0-2.7 7v1.2h-47ZM229 339.6l-1-1.4 2.7-2 4.1-3.3c.8-.6 3.1-1.3 5.3-1.4 5-.4 5.9-1 5.9-4v-2.6l1.6-.6 1.5-.6 2 2.2c1.2 1.2 2.7 2 3.4 1.7l5.7-1.1 4.4-.7 1.3 1.6c1.9 2.2.5 4.9-3.5 6.9-3.9 2-6.4 2.2-6.4.7 0-1.6-4.5-1.2-9.5 1l-4.6 2-1.9-1.2-1.9-1.2-1.8 1.6c-1 .8-2.8 2-4 2.7l-2 1zm257-1.4-2.6-1.5 3.6-7c2-4 3.7-7.4 4-7.7 2.4-2.4 3.3-5.2 4.7-14.2.9-5.7 1.7-11.7 1.7-13.3.2-4.5 1-5.2 7.6-6 3.3-.3 7.6-1.3 9.5-2l3.4-1.5 1 1.8 1 1.8-3 1.8c-4.3 2.5-3.1 6 3.3 10l2.8 1.8-1 1.9c-.6 1-1.8 1.9-2.8 1.9-1 0-3.1.9-4.9 2l-3.2 1.9-1.1-1.5c-.7-.8-2.5-1.4-4-1.4h-2.7l-1.3 4.2c-.7 2.4-3.2 8.2-5.6 13a59.7 59.7 0 0 0-4.4 10.2c0 .7-.8 2.3-1.8 3.4l-1.7 2zm-266.3-22.8c-.4-.4 2.2-3.8 5.8-7.5 3.6-3.7 6.5-7.2 6.5-7.9 0-.6 1.1-2.6 2.5-4.5l2.6-3.3 3.7-1 3.7-.8 3 .8 3 .8 1.8 3 1.7 3.2 5 2c4.8 2.1 6.9 4.4 5.3 6-2 1.8-43.3 10.5-44.6 9.2z" style="fill:#242120" transform="matrix(2.5 0 0 2.5 0 -178)"/></svg>