<svg xmlns="http://www.w3.org/2000/svg" width="1350.02" height="171.07" viewBox="0 0 357.19 45.26"><path d="M357.53 268.77c-17.4-7.28 5.67-35.43 6.34-51.07 8.2-23.35 16.75-46.6 25.1-69.84-2.72-17.55 29.27-1.1 40.51-9.85 12.4-.8 53.12-12.65 45.55 6.92-18.85 5.46-17.23 42.3-26.68 60.29-4.91 18.74-11.17 37.9-12.67 56.83-23.82 4.5-4.98-33.15-2.82-45.39 5.86-23.89 13.65-47.26 20.1-70.96-20.12 6.5-53.57-3.98-58.53 23.59-11.35 31.8-25.15 63.19-31.9 96.4-.92 1.74-2.82 3.59-5 3.08zm112.7-11.33c-12.09-16.36 9.07-35.07 15.36-49.34 9.66-16.38 30.33-23.17 41.59-5.49 11.6 7.36-7.24 22.06 1.9 32.94 2.34 9.05 28.95 17.94 6.43 19.4-16.42-1.97-15.84-36.91-28.69-13.2-9.62 8.18-22.66 22.63-36.59 15.7zm6.92-10.75c17.74-3.54 31.12-22.03 41.09-37.06-14.48-23.37-35.55 26.32-41.1 37.06zm83.52 12.29c-20.7-15.03-1.9-45.23 10.94-58.75 18.7 9.04-7.76 28.03-9.46 42.9 14.8 3.52 28.66-31.46 41.33-40.4 21.33 6.31-16.48 44.05 5.19 38.58 10.88-10.65 20.3-22.65 29.04-35.08 23.6 4.26-12.2 43.7 14.1 42.81-3.22 30.42-27.73-17.66-24.52-11.18-9.06 23.98-39.3 23.6-37.3-2.3-8.17 7.37-17.37 23.64-29.32 23.42zm121.53-.2c-28.5 1.73-11.87-36.29-.74-48.2 8.5-24.2 45.56-24.05 41.3 5.39-3.55 14.21-6.69 30.1 10.56 28.13-2.89 21.3-26.46 9.25-24.43-8.16-9.08 7.4-15.55 18.5-26.69 22.85zm.58-11.32c12.3-7.15 43.44-39.84 20.02-43.59-9.9 10.12-32.38 33.62-22.85 44.93zm182.6-105.99c10.58 1.5 37.69-6.37 37.1 7.5-10.1 30.81-23.27 60.67-31.01 92.06-9.84 10.07-37.26 6.7-52.18 9.12 19.9-34.3 31.35-72.2 46.08-108.68zm16.89 101.76c10.2-34.21 23.98-67.54 34.46-101.23-5.4-19.48-34.48-7.26-50.02-12.24-7.71-5.3-22 7.32-34.17 7.68-5.49 23.06 31.36-6.25 16.51 16.7-13.95 33.68-24.18 70.39-47.42 99.08-21.02-5.22-30.46 41.7-12.48 42.43 4.06-15.17 6.32-37.97 30.67-33.31 21.15-1.36 42.26-6.19 63.4-5.67 29.43-5.2-22.3 39.07 8.07 38.6.9-16.85 37.66-45.82 6.72-50.7-5.22-.67-10.64.24-15.74-1.34zm65.47 19.97c-22.88-4.24-17.66-32.44-9.22-47.42 5.8-21.61 43.18-38.08 45.75-6 .73 22.33-14.88 46.72-36.53 53.42zm15.36-22.85c13.7-10.87 13.23-55.37-8.3-28.36-8.15 9.44-22.4 51.35 1.82 36.38a59.48 59.48 0 0 0 6.48-8.02zm25.73 20.36c-24.44-9.69 18.77-22.43 15.17-41.67 9.99-13.22-4.35-11.65-5.38-21.7 15.8-9.57 48.71 2.45 41.27 24.63-5.5 9.92-6.16 52.16-19.38 29.33.88-12.77 18.37-52.67-2.69-41.47-6.45 16.88-10.8 36.42-25.97 48.62zm71.81-4.23c-20.72-2.55-1.46-30.5 0-44.11-7.32-20.67 38.07-28.99 42.04-11.76-15.4 1.21-32.94 1.72-32.83 23.23-4.24 10.55-6.62 21.6-9.21 32.64zm52.22 5c-20.82-6.42-13.76-32.22-4.51-45.41 7.85-19.38 45.51-37.24 48.06-5.56-.43 23.64-20.29 46.99-43.55 50.96zm18.43-20.36c14.01-8.52 21.65-51.85-3.45-30.37-9.9 7.7-30.8 49.03-4.13 37.33a57.89 57.89 0 0 0 7.58-6.96zm91.97 35.33c-21.06-2.77 1.77-36.36 2.07-51.42 7.09-26.34 16.62-51.55 28.27-76.26-24.35-3.88 7.66-21.5 16.32-13.63 21.28-.08 42.49 1.14 63.74 2.3 18.04 6.12-10.83 28.84-10.22 42.15-9.93 30.66-21.39 61.02-28.18 92.64-22.06-9.9 6.09-40.77 4.76-59.19 4.92-19.55 22.74-51 17.51-64.7-17.71 1.79-48.21-11.64-55.49 10.8-16.62 37.02-28.87 75.8-38.06 115.25zm160.9-14.4c-14.43-2.7-10.63-34.05-24-11.9-22.96 26.37-35.17-15.6-21.89-32.84 1.08-9.68 10.55-36.66 18.19-16.75-2.2 12.15-18.6 41.04-7.25 43.25 20.62-8.76 21.53-39.48 35.33-48 16.16 12.38-17.54 47.59 4.51 53.23 10.35-15.76 23.76-.47 9.12 8.6-4.03 2.66-8.9 5.93-14.01 4.41zm39.36-3.07c-20.71-15.02-1.91-45.23 10.94-58.75 23.32 7.07-20.39 39.95-5.18 44.54 18.22-7.01 23.97-42.79 40.89-39.36 11.21 8.11-19.56 47.43 3.37 33.74 11.17-9.28 18.5-23.95 28.7-32.97 20.13 7.34-13.22 43.31 12.43 42.86-3.25 30.4-27.73-17.64-24.53-11.18-9.07 23.97-39.3 23.6-37.3-2.3-8.16 7.37-17.37 23.63-29.32 23.42zm118.65.77c-18.68-7.91-7.08-33.61-14.21-46.28 16.93 5.26 23.79-31.78 45.32-19.58 22.66 15.24-8.21 43.05-27.65 34.75-13.33 13.24 7.81 35.92 18.67 14.6 24.36-14.64-1.17 28.03-17.43 17.8zm11.33-38.98c17.86 4.3 23.98-31.09 4.03-13.82-2.73 3.14-17.99 15.44-4.03 13.82zm43.01 36.48c-6.04-16.06 10.83-31.75 16.7-46.46 8.29-18.92-22.67 8.29-14.59-13.06 20.38-20.84 31.04 11.86 23.81 19.2 8.14-13.47 35-22.75 28.09 2.65-6.74 14.9 6.32-6.67 10.88-8.22 22.97-15.23 12.55 22.92 15.75 33.41 8.15-3.53 30.49-17.59 17.28.96-13.93 21.27-37.2 2.26-26.69-18.82 2.76-20.63-19.89 13.43-24.86 20.21-16.79 18.85-6.39-21.87-1.35-31.2-14.54 4.89-28.52 31.33-42.91 42.91z" aria-label="Паша Долго Пишет" style="-inkscape-font-specification:Caveat" transform="matrix(.26 0 0 .26 -92.46 -33.32)"/></svg>